<mxfile host="app.diagrams.net" modified="2021-07-15T09:39:04.619Z" agent="5.0 (Windows NT 10.0; Win64; x64) AppleWebKit/537.36 (KHTML, like Gecko) Chrome/91.0.4472.114 Safari/537.36" etag="8Ex3xpL0aL8xSa3ICY0A" version="14.8.6" type="github">
  <diagram id="6a731a19-8d31-9384-78a2-239565b7b9f0" name="Page-1">
    <mxGraphModel dx="1422" dy="882" grid="1" gridSize="10" guides="1" tooltips="1" connect="1" arrows="1" fold="1" page="1" pageScale="1" pageWidth="1169" pageHeight="827" background="none" math="0" shadow="0">
      <root>
        <mxCell id="0" />
        <mxCell id="1" parent="0" />
        <mxCell id="2" value="开始" style="shape=mxgraph.flowchart.terminator;strokeWidth=2;gradientColor=none;gradientDirection=north;fontStyle=0;html=1;" parent="1" vertex="1">
          <mxGeometry x="260" y="60" width="120" height="30" as="geometry" />
        </mxCell>
        <mxCell id="4" value="读取当前实验命中的statUploadStrategy并返回" style="rounded=1;whiteSpace=wrap;html=1;absoluteArcSize=1;arcSize=14;strokeWidth=2;fillColor=#1681B5;fontColor=#FFFFFF;strokeColor=#10739E;" parent="1" vertex="1">
          <mxGeometry x="240.5" y="670" width="159" height="80" as="geometry" />
        </mxCell>
        <mxCell id="6" value="统计SdkVc&amp;gt;=300" style="shape=mxgraph.flowchart.decision;strokeWidth=2;gradientDirection=north;fontStyle=0;html=1;strokeColor=#d6b656;fillColor=#fff2cc;" parent="1" vertex="1">
          <mxGeometry x="271" y="390" width="98" height="57" as="geometry" />
        </mxCell>
        <mxCell id="7" style="fontStyle=1;strokeColor=#003366;strokeWidth=1;html=1;entryX=0.5;entryY=0;entryDx=0;entryDy=0;" parent="1" source="2" edge="1" target="O3qQAeO-0DIFtZuH8M05-52">
          <mxGeometry relative="1" as="geometry">
            <mxPoint x="320" y="130" as="targetPoint" />
          </mxGeometry>
        </mxCell>
        <mxCell id="9" style="entryX=0.5;entryY=0;entryPerimeter=0;fontStyle=1;strokeColor=#003366;strokeWidth=1;html=1;exitX=0.5;exitY=1;exitDx=0;exitDy=0;" parent="1" source="O3qQAeO-0DIFtZuH8M05-52" target="6" edge="1">
          <mxGeometry relative="1" as="geometry">
            <mxPoint x="319.4000000000001" y="330" as="sourcePoint" />
          </mxGeometry>
        </mxCell>
        <mxCell id="10" value="" style="edgeStyle=elbowEdgeStyle;elbow=horizontal;exitX=1;exitY=0.5;exitPerimeter=0;fontStyle=1;strokeColor=#003366;strokeWidth=1;html=1;entryX=1;entryY=0.5;entryDx=0;entryDy=0;" parent="1" source="6" target="VklB-e8Y3t3cmcgqewh2-28" edge="1">
          <mxGeometry x="381" y="28.5" width="100" height="100" as="geometry">
            <mxPoint x="750" y="447" as="sourcePoint" />
            <mxPoint x="600" y="980" as="targetPoint" />
            <Array as="points">
              <mxPoint x="700" y="970" />
              <mxPoint x="730" y="960" />
              <mxPoint x="660" y="970" />
              <mxPoint x="750" y="820" />
              <mxPoint x="490" y="970" />
              <mxPoint x="720" y="820" />
            </Array>
          </mxGeometry>
        </mxCell>
        <mxCell id="12" value="yes" style="edgeStyle=elbowEdgeStyle;elbow=horizontal;fontColor=#001933;fontStyle=1;strokeColor=#003366;strokeWidth=1;html=1;" parent="1" source="6" edge="1">
          <mxGeometry width="100" height="100" as="geometry">
            <mxPoint y="100" as="sourcePoint" />
            <mxPoint x="320" y="519" as="targetPoint" />
          </mxGeometry>
        </mxCell>
        <mxCell id="17" value="" style="edgeStyle=elbowEdgeStyle;elbow=horizontal;fontStyle=1;strokeColor=#003366;strokeWidth=1;html=1;entryX=0.5;entryY=0;entryDx=0;entryDy=0;entryPerimeter=0;" parent="1" source="4" target="noWKgFkb6oJTjKW2lA6C-72" edge="1">
          <mxGeometry y="200" width="100" height="100" as="geometry">
            <mxPoint y="300" as="sourcePoint" />
            <mxPoint x="318" y="860" as="targetPoint" />
          </mxGeometry>
        </mxCell>
        <mxCell id="noWKgFkb6oJTjKW2lA6C-72" value="结束" style="shape=mxgraph.flowchart.terminator;strokeWidth=2;gradientColor=none;gradientDirection=north;fontStyle=0;html=1;" parent="1" vertex="1">
          <mxGeometry x="260" y="870" width="120" height="30" as="geometry" />
        </mxCell>
        <mxCell id="O3qQAeO-0DIFtZuH8M05-52" value="&lt;span&gt;从MixerAdRequest读取statUploadStrategForStatSdk&lt;/span&gt;" style="rounded=1;whiteSpace=wrap;html=1;absoluteArcSize=1;arcSize=14;strokeWidth=2;fillColor=#1681B5;fontColor=#FFFFFF;strokeColor=#10739E;" parent="1" vertex="1">
          <mxGeometry x="234.5" y="220" width="171" height="70" as="geometry" />
        </mxCell>
        <mxCell id="VklB-e8Y3t3cmcgqewh2-29" style="edgeStyle=orthogonalEdgeStyle;rounded=0;orthogonalLoop=1;jettySize=auto;html=1;entryX=1;entryY=0.5;entryDx=0;entryDy=0;entryPerimeter=0;" parent="1" source="VklB-e8Y3t3cmcgqewh2-28" target="noWKgFkb6oJTjKW2lA6C-72" edge="1">
          <mxGeometry relative="1" as="geometry" />
        </mxCell>
        <mxCell id="VklB-e8Y3t3cmcgqewh2-28" value="返回statUploadStrategy&lt;br&gt;=1" style="rounded=1;whiteSpace=wrap;html=1;absoluteArcSize=1;arcSize=14;strokeWidth=2;fillColor=#1681B5;fontColor=#FFFFFF;strokeColor=#10739E;" parent="1" vertex="1">
          <mxGeometry x="480" y="850" width="100" height="70" as="geometry" />
        </mxCell>
        <mxCell id="VklB-e8Y3t3cmcgqewh2-31" value="yes" style="edgeStyle=orthogonalEdgeStyle;rounded=0;orthogonalLoop=1;jettySize=auto;html=1;" parent="1" source="VklB-e8Y3t3cmcgqewh2-30" target="4" edge="1">
          <mxGeometry relative="1" as="geometry" />
        </mxCell>
        <mxCell id="VklB-e8Y3t3cmcgqewh2-33" style="edgeStyle=elbowEdgeStyle;orthogonalLoop=1;jettySize=auto;html=1;rounded=1;entryX=1;entryY=0.5;entryDx=0;entryDy=0;" parent="1" source="VklB-e8Y3t3cmcgqewh2-30" target="VklB-e8Y3t3cmcgqewh2-28" edge="1">
          <mxGeometry relative="1" as="geometry">
            <mxPoint x="271" y="820" as="targetPoint" />
            <Array as="points">
              <mxPoint x="700" y="690" />
            </Array>
          </mxGeometry>
        </mxCell>
        <mxCell id="VklB-e8Y3t3cmcgqewh2-34" value="no" style="edgeLabel;html=1;align=center;verticalAlign=middle;resizable=0;points=[];" parent="VklB-e8Y3t3cmcgqewh2-33" vertex="1" connectable="0">
          <mxGeometry x="-0.0464" y="-2" relative="1" as="geometry">
            <mxPoint y="1" as="offset" />
          </mxGeometry>
        </mxCell>
        <mxCell id="VklB-e8Y3t3cmcgqewh2-30" value="statUploadMode = 2" style="shape=mxgraph.flowchart.decision;strokeWidth=2;gradientDirection=north;fontStyle=0;html=1;strokeColor=#d6b656;fillColor=#fff2cc;" parent="1" vertex="1">
          <mxGeometry x="271" y="520" width="98" height="57" as="geometry" />
        </mxCell>
      </root>
    </mxGraphModel>
  </diagram>
</mxfile>
